<?xml version="1.0" encoding="utf-8"?>
<!-- Generator: Adobe Illustrator 26.0.2, SVG Export Plug-In . SVG Version: 6.00 Build 0)  -->
<svg version="1.1" id="Layer_1" xmlns="http://www.w3.org/2000/svg" xmlns:xlink="http://www.w3.org/1999/xlink" x="0px" y="0px"
	 viewBox="0 0 1080 1080" style="enable-background:new 0 0 1080 1080;" xml:space="preserve">
<style type="text/css">
	.st0{fill:none;}
	.st1{fill:url(#SVGID_1_);}
	.st2{fill:#C7C86B;}
	.st3{fill:url(#SVGID_00000031889215806913340150000011136916581686870184_);}
	.st4{fill:url(#SVGID_00000066516080109301850770000012987299728693566376_);}
	.st5{fill:url(#SVGID_00000049215302273307335400000015152204260763543168_);}
	.st6{fill:url(#SVGID_00000007419534642870735360000010275114563195827641_);}
	.st7{fill:url(#SVGID_00000139987557567588112170000015200567534619258030_);}
</style>
<g>
	<path class="st0" d="M652.7,422.5c0,11,0,22.1,0,33.3C653.8,444,653.7,432.9,652.7,422.5z"/>
	<linearGradient id="SVGID_1_" gradientUnits="userSpaceOnUse" x1="599.1561" y1="290.749" x2="656.2811" y2="367.5108">
		<stop  offset="4.469024e-03" style="stop-color:#E3D4C6"/>
		<stop  offset="1" style="stop-color:#F19A5F"/>
	</linearGradient>
	<path class="st1" d="M652.7,422.5c0-17.1,0-34.1,0-51.1c0-20.2,0.2-40.4,21.2-56.6c-42.2-10.8-79.7-22.1-118-29.6
		c-6.7-1.3-13.3-2.3-20-3C536.1,282.3,642.5,317.6,652.7,422.5z"/>
	<polygon class="st2" points="652.7,455.8 652.7,455.8 652.7,455.8 	"/>
	
		<linearGradient id="SVGID_00000126303897109042381780000009893019508612745626_" gradientUnits="userSpaceOnUse" x1="456.7769" y1="284.7826" x2="687.5544" y2="560.8915">
		<stop  offset="1.385225e-07" style="stop-color:#E57152"/>
		<stop  offset="1" style="stop-color:#B16776"/>
	</linearGradient>
	<path style="fill:url(#SVGID_00000126303897109042381780000009893019508612745626_);" d="M447.5,327.3
		c15.3-25.7,51.3-38.3,84.8-29.6c40.5,10.5,62.9,34.1,63.6,68.5c0.7,33.9,0.3,67.8,0.4,101.7c0,8.9-0.6,17.2,8.1,23.9
		c15.2,11.7,29.4,24.7,48.4,40.9c0-26.4,0-51.9,0-76.8c0,0,0,0,0,0c0-11.2,0-22.3,0-33.3c-10.2-104.9-116.6-140.2-116.8-140.2
		c-27-2.9-54.2-0.7-79.8,11.1c-27.9,12.9-46.8,35.5-55.9,61.8c11.7,7.9,26.4,17.9,43,29.3C436.2,364.9,437.4,344.3,447.5,327.3z"/>
	
		<linearGradient id="SVGID_00000093164878988714908030000006190307795344783520_" gradientUnits="userSpaceOnUse" x1="496.5153" y1="550.3478" x2="767.8593" y2="796.6996">
		<stop  offset="4.469291e-03" style="stop-color:#6E4D5F"/>
		<stop  offset="1" style="stop-color:#EE9A61"/>
	</linearGradient>
	<path style="fill:url(#SVGID_00000093164878988714908030000006190307795344783520_);" d="M828.2,672.9c-2.1,2.4-5,4.6-6.2,7.4
		c-26.4,61-77.6,70.2-135.7,64.7c-25.9-2.4-32.1-14.6-21.1-38.6c3.5-7.6,6.3-15.1,8.5-22.6c-7.2-131.5-167.7-189.4-248.3-210.2
		c1.4,1.6,2.9,3.2,4.4,4.7c28.5,28.9,64.4,47.5,98.2,69c32.4,20.7,64.7,41.6,84.7,76c31.8,54.7,12.6,111.6-45.3,136.6
		c-8.2,3.5-19.3,2.7-25.2,13c83,0,164.8,0,246.7,0c7.2,0,15.7,0.9,18.3-7.5c9.2-30,17.5-60.2,26.2-90.3
		C831.7,674.4,830,673.7,828.2,672.9z"/>
	
		<linearGradient id="SVGID_00000121237822994776376890000006541419092950209214_" gradientUnits="userSpaceOnUse" x1="327.4888" y1="460.0212" x2="688.0907" y2="562.3703">
		<stop  offset="0" style="stop-color:#F2A263"/>
		<stop  offset="1" style="stop-color:#DD6C63"/>
	</linearGradient>
	<path style="fill:url(#SVGID_00000121237822994776376890000006541419092950209214_);" d="M673.8,683.8
		c11.7-39.4,6.3-77.7-17.6-114.9c-16.2-25.3-38.1-44.3-62.2-61.7c-43.3-31.2-93.5-52.7-131.2-91.7c-9.1-9.4-15.6-20.1-19.6-31.1
		c-16.6-11.4-31.4-21.4-43-29.3c-13.2,38.1-5.6,83.9,25.3,118.5C506.1,494.4,666.6,552.3,673.8,683.8z"/>
	
		<linearGradient id="SVGID_00000138555701823746687400000005822257454630499220_" gradientUnits="userSpaceOnUse" x1="395.3289" y1="500.2773" x2="466.7352" y2="766.8608">
		<stop  offset="4.469024e-03" style="stop-color:#E3D4C6"/>
		<stop  offset="1" style="stop-color:#F19A5F"/>
	</linearGradient>
	<path style="fill:url(#SVGID_00000138555701823746687400000005822257454630499220_);" d="M361,525.2c-11.5,52.4-4.8,96.8,8.7,140.8
		c13.5,43.9,38.6,78.4,81.4,97.1c27.1,11.9,54.4,13,82.3-9.7c-41-13.8-70.2-38.2-91.6-72.3c0.5,0.1,1,0.2,1.5,0.3
		c-52.2-59.1-75.8-133.6-81.9-155.5C361.3,525.6,361.2,525.4,361,525.2z"/>
	<path class="st2" d="M548,716.2c0.1-6.2-0.3-12.1-1.1-17.7c0.4,6.3,0.8,12.3,1.1,17.8C548,716.3,548,716.2,548,716.2z"/>
	
		<linearGradient id="SVGID_00000027594914630281559680000008538818582833492608_" gradientUnits="userSpaceOnUse" x1="361.4909" y1="631.1957" x2="547.997" y2="631.1957">
		<stop  offset="4.469158e-03" style="stop-color:#006838"/>
		<stop  offset="1" style="stop-color:#DDD5CA"/>
	</linearGradient>
	<path style="fill:url(#SVGID_00000027594914630281559680000008538818582833492608_);" d="M521.4,731.8c17.3,9,26.3,5.8,26.6-15.5
		c-0.3-5.6-0.7-11.6-1.1-17.8c-5.1-37.7-28.1-64.7-60.9-84.5c-42.6-25.8-92-40.7-124.5-88.1c6.1,22,29.7,96.4,81.9,155.5
		c12.1,2.6,20.5,10.4,29.1,18.1C487.1,712.8,504,722.7,521.4,731.8z"/>
</g>
</svg>
