<?xml version="1.0" encoding="utf-8"?>
<!-- Generator: Adobe Illustrator 26.0.2, SVG Export Plug-In . SVG Version: 6.00 Build 0)  -->
<svg version="1.1" id="Layer_1" xmlns="http://www.w3.org/2000/svg" xmlns:xlink="http://www.w3.org/1999/xlink" x="0px" y="0px"
	 viewBox="0 0 1080 1080" style="enable-background:new 0 0 1080 1080;" xml:space="preserve">
<style type="text/css">
	.st0{fill:#6A7775;}
	.st1{fill:none;}
	.st2{fill:url(#SVGID_1_);}
	.st3{fill:#C7C86B;}
	.st4{fill:url(#SVGID_00000085938454030077299640000011682704648443862440_);}
	.st5{fill:url(#SVGID_00000138564708160266588040000007205965140705505429_);}
	.st6{fill:url(#SVGID_00000003086386723031035810000004695766066601915038_);}
	.st7{fill:url(#SVGID_00000107557736697809482840000002223853172849698987_);}
	.st8{fill:url(#SVGID_00000060030065060650336360000011555978353093317814_);}
</style>
<g>
	<g>
		<g>
			<path class="st0" d="M355.7,408.1c2.4,1.1,4.5,2.7,6.4,4.9c4.1,4.7,4.8,11.2,4.9,14.6c0.1,5-1.1,10.2-3.4,15
				c-1.4,2.9-3.1,5.7-5.1,8.1c-3.9,4.8-8.2,8.5-8.5,8.7c-1,0.9-0.3,2.2-0.3,2.2l-1.4,3l-18.9-8.8l1.6-3.3l1.2,0.2
				c9.5,1.4,16.6,0.1,21.4-4.2c1.7-1.5,3.1-3.2,4.3-5.2c0.4-0.7,0.8-1.4,1.1-2.1c2.3-4.9,3.5-12-0.1-17c-4.2-5.7-11.1-5.1-16.1-2
				c-2.8,1.7-5.1,4.1-7.2,6.2l0,0l-2.4,2.4c-5.6,5.7-11.9,12.1-19.7,13.9c-7.5,1.7-16.1-2.8-19.5-10.2c-1.1-2.4-1.8-5.1-2-7.6
				c-0.4-4.8,0.6-9.9,3.1-15.2l0-0.1c1.9-4.1,4.7-8.3,7.9-11.8c0.7-0.7,2.4-2.5,2.4-2.5c1-0.9,0.3-2.2,0.3-2.2l0.4-0.8l1-2.2l0,0
				l0,0l4.5,2.1l0,0l13,6.1l-1.5,3.3l-1.1-0.1c-2.9-0.3-9.4-0.1-13.1,1.1c-2.7,0.8-5.2,2.8-7.3,5.6c-0.9,1.3-1.7,2.6-2.3,3.9
				c-0.7,1.4-1.1,2.7-1.4,4.1c-0.9,4.5,0.5,10.4,5.7,12.8c7.9,3.7,15.9-4.6,19.3-8.2l1.3-1.3c5.1-5.4,10.5-11,17.7-13.8
				C346.5,405.9,351.3,406,355.7,408.1z"/>
			<path class="st0" d="M364.1,383.4c2.7,2.3,5.7,4.2,8.6,5.5c3.5,1.5,6.9,2.1,9.8,1.8c3.3-0.4,6.6-2.2,8.7-4.9
				c0.7-0.9,1.3-1.9,1.7-3c1.6-4,1.3-9.1-0.9-13.6l-0.7-1.5l2.2-1c0.1-0.1,0.2-0.1,0.3-0.1c0,0,0.1,0,0.1,0l0,0c0.1,0,0.1,0,0.2-0.1
				c0.1,0,0.2-0.1,0.3-0.1l1.3-0.6l0.7,1.2c3.5,5.8,4.3,13,2.3,18.7c-0.7,2.1-1.8,4-3.3,5.8c-1.6,2-3.6,3.8-5.9,5.3
				c-4.4,2.9-9.4,4.3-14.4,4.1c-6.4-0.2-13.4-3.3-18.5-8.4c-3.9-3.8-6.7-8.6-7.9-13.5c-1.6-6.6-0.2-13.7,3.7-19
				c0.1-0.2,0.3-0.4,0.5-0.6c3.4-4.3,8.4-7.2,13.8-7.9c5.9-0.8,12.1,1,16.8,4.7l1.3,1L364.1,383.4z M360.5,380l13.6-17.1
				c-2.8-2.2-6.3-3.4-9.5-3.3c-2.9,0.1-5.6,1.4-7.2,3.4c-0.3,0.4-0.6,0.9-0.9,1.4c-1,2.2-1.2,4.9-0.4,7.7
				C357,375.1,358.5,377.8,360.5,380z"/>
			<path class="st0" d="M393.5,318.8l3.7,4.6c0.7-5.7,3.4-11.1,7.3-14.4c0.2-0.2,0.4-0.3,0.5-0.4c3.2-2.6,7-3.7,11-3.2
				c3.5,0.4,7.2,2.6,10.3,6.1l0,0l5.8,7.2c4.5,5.6,9.9,12.4,9.9,12.4c2.1,2.6,3.9,4,5.3,4.3c0.2,0,0.4,0,0.6,0
				c0.5,0,0.9-0.2,1.5-0.6c0.1,0,0.4-0.3,0.6-0.5c0.1,0,0.1-0.1,0.1-0.1l1-0.8l2.4,3l-17.9,14.4l-2.4-3l1-0.8c0.3-0.3,0.7-0.5,1-0.8
				c0.4-0.4,0.7-1,0.8-1.7c0.1-1.5-0.9-3.5-3-6.1l-0.5-0.7c-9.6-11.9-14.8-18.4-15.2-18.9c-3.8-4.6-7.3-5.6-10.5-3
				c-5.2,4.2-4.9,11.6-4.7,13.6l16.5,20.6c2.1,2.6,3.9,4,5.3,4.3c0.8,0.1,1.6-0.1,2.3-0.7l1.5-1.2l2.4,3l-17.9,14.4l-2.4-3l1.5-1.2
				c0.8-0.6,1.1-1.3,1.2-2.1c0.1-1.5-0.9-3.5-3-6.1l-15.8-19.7c-2.4-3.2-4.3-4.8-6-5.1c-0.9-0.2-1.6,0.2-2.5,0.9l-0.1,0.1l-1.4,1.1
				l-2.4-3l9.8-11L393.5,318.8z"/>
			<path class="st0" d="M467.4,275.8l-4.6-9.5c-1.4-3-2.8-4.7-4.2-5.3c-0.8-0.3-1.6-0.1-2.5,0.4l-1.8,0.8l-1.7-3.5l11.9-8.5l2.8-1.3
				l28,58.3c2,3,3.6,2.8,5,2.2l1.7-0.8l1.7,3.5l-12.3,5.9l-3.9-2.8c-1.9,4.6-5,8-9,10c-11.7,5.6-24.7,0.1-31.7-13.3
				c-0.3-0.6-0.6-1.2-0.8-1.7c-6.1-14-2.3-27.3,9.5-33C460,275,464.5,275.2,467.4,275.8z M470.1,281.7c-1.6-0.6-5.9-1.8-10.7,0.5
				c-1.7,0.8-3.1,1.9-4.1,3.1c-0.7,0.9-1.3,2-1.6,3.2c-0.4,1.4-0.5,3-0.4,4.8c0.1,1.7,0.5,3.5,1.1,5.5c1.3,4.2,3.2,8.4,5.8,12.5
				c1.1,1.8,2.3,3.3,3.7,4.6c1.3,1.3,2.6,2.3,3.9,3c3.3,1.8,6.7,0.8,9-0.3c1.4-0.7,2.8-1.6,3.9-2.7c1.1-1,2-2.2,2.6-3.5
				c0.2-0.4,0.4-1.2,0.6-1.8L470.1,281.7z"/>
			<path class="st0" d="M513.4,256.7l1.5,6.1c2.8-4.4,7.7-9.1,13-10.6l0,0c0.7-0.2,1.4-0.3,2.2-0.3c1.3,0,2.8,0.4,3.8,1
				c1,0.6,1.8,1.6,2.2,2.9c0.4,1.4,0.4,3-0.2,4.3c-0.6,1.6-1.8,2.6-3.2,2.9c-0.1,0-0.3,0.1-0.4,0.1c-1.5,0.2-2.9-0.2-4.3-0.6l-0.1,0
				c-0.6-0.2-1.2-0.4-1.7-0.4c-1.1-0.1-2.2-0.1-3.1,0.1c-0.8,0.2-1.4,0.5-2,1c-1.3,1.2-2.9,3.3-4.6,6.5c2.7,10.7,6.4,25.8,6.4,25.8
				c0.8,3.3,1.8,5.3,3,6.1c0.7,0.5,1.4,0.6,2.4,0.3l1.9-0.5l0.9,3.8l-22.3,5.5L508,307l1.6-0.4c0.1,0,0.1,0,0.2,0
				c1.1-0.3,1.7-0.7,2.1-1.4c0.7-1.2,0.7-3.2,0-6.1c-0.1-0.5-6.4-26-6.5-26.3c-0.8-3.3-1.8-5.2-3.1-6.1c-0.8-0.5-1.6-0.4-2.7-0.1
				l0,0l-1.7,0.4l-0.9-3.8l13.3-5.8L513.4,256.7z"/>
			<path class="st0" d="M574.4,295l0.4,3.9l-22.8,2.3l-0.4-3.9l1.9-0.2c1-0.1,1.7-0.5,2.2-1.1c0.9-1.2,1.1-3.4,0.8-6.8l-2.6-26.2
				c-0.3-3.3-1-5.4-2.1-6.4c-0.7-0.6-1.4-0.6-2.3-0.5l-2.2,0.2l-0.4-3.9l1.3-0.4l12.9-3.6l3-0.3l4,39.8c0.3,3.4,1,5.5,2.1,6.5
				c0.6,0.5,1.3,0.7,2.3,0.6L574.4,295z M549.3,236.6c-0.4-3.7,2.4-7.1,6.1-7.4c3.7-0.4,7.1,2.4,7.4,6.1c0.4,3.7-2.4,7.1-6.1,7.4
				C553,243.1,549.7,240.3,549.3,236.6z"/>
			<path class="st0" d="M581.7,250.2l-1.6-0.1l0.2-3.9l21.7,1.4l-0.2,3.9l-1.8-0.1c-1.2-0.1-1.5,0.3-1.8,0.6
				c-0.6,0.8-0.5,2.3,0.1,4.4l10.2,29c3-7,10.6-25.3,11-26.2c0.7-1.8,1.6-4.3,0.8-5.8c-0.2-0.3-0.6-0.8-1.8-0.8l-1.9-0.1l0.2-3.9
				l16.4,1l-0.2,3.9l-1.2-0.1c-0.1,0-3.6-0.2-5.5,3.8L609.1,298l-6.4,14.5c-3.1,6.9-8.4,11.1-13.7,10.7c-4.7-0.3-9.3-3-9-7.6
				c0.1-1.4,0.6-2.7,1.6-3.6c1-1,2.4-1.6,3.8-1.5c2.4,0.2,3.6,1.8,4.7,3.3c0.8,1.1,1.5,2,2.5,2.1c1.6,0.1,3-1.6,3.9-3
				c0.2-0.3,1-2,4.8-10.4l0.8-1.9l-16.3-45.7C584.4,251.1,583.2,250.3,581.7,250.2z"/>
			<path class="st0" d="M671.1,276.6c0.4-1.5,1.3-4.9,1.5-5.4c0.2-0.7,0.2-1.3,0.2-1.9c-0.2-1.7-0.9-3.2-2.2-4.6
				c-1.4-1.5-3-2.5-5-3.1c-1.4-0.4-2.7-0.4-4-0.1c-1.8,0.5-3.3,1.5-4.3,3.1c-0.4,0.6-0.8,1.5-1.1,2.1l-0.1,0.1
				c-0.7,1.4-1.4,2.8-2.7,3.7l0,0c-1.3,0.9-2.9,1.2-4.3,0.8c-2-0.5-3.2-1.8-3.5-3.7c-0.5-2.9,1.4-6.3,3.7-7.9c1.4-1,3.1-1.9,4.8-2.4
				c4.5-1.4,9.6-1.5,14.6-0.1c1.9,0.5,3.7,1.2,5.4,2.1c3.3,1.8,7.2,4.9,8.7,8.1c0.7,1.4,1.1,3.2,1.1,4.8c0,2.7-0.7,5.5-1.3,7.5
				c-0.1,0.3-1.2,4.2-3.5,12.6l-0.1,0.2c-1.3,4.5-2.7,9.7-2.7,9.8c-0.5,1.9-1,4-0.6,5.8c0.2,0.6,0.5,1.1,1,1.4
				c0.3,0.2,0.6,0.3,0.8,0.4c0.1,0,0.1,0,0.2,0.1c0.1,0,0.3,0.1,0.3,0.1l0.7,0.2l-1,3.7l-8.8-2.4c-4.6-1.5-5.5-4.1-5.4-6.1l-3.2,0.9
				c-4.6,1.1-9.5,1.1-13.7-0.1c-1.6-0.4-3.1-1.1-4.5-1.8c-2.8-1.6-5-4.4-5.9-7.5c-0.6-1.9-0.6-4.4-0.3-6.1c0.1-0.6,0.2-1.3,0.4-2
				c1.7-7,7.7-10.6,12.3-11.5c5.5-1.1,10.4-0.9,14.6-0.8l0.1,0C665.8,276.8,668.5,277,671.1,276.6z M669.6,281.9
				c-1.9,0.2-3.7,0.3-5.5,0.3c-4.2,0.1-8.2,0.3-12.3,2.8c-2.1,1.3-3.5,3.3-4.1,5.7l-0.1,0.3c-0.3,1.1-1.1,4.1,2.1,7.3
				c0.6,0.6,2.1,1.5,4.3,2.1c2.2,0.6,4.6,0.8,7.2,0.6c1.3-0.1,2.5-0.5,3.2-0.7L669.6,281.9z"/>
			<path class="st0" d="M760.4,348.3L760.4,348.3l2.1-1.2l2.7,1.9l-9.4,12.9L732.6,345l-19.7-14.4l2.3-3.1l1.4,1
				c1.1,0.8,2.1,1.2,3,1c1.5-0.2,3.3-1.6,5.2-4.3l29.9-40.9c2-2.7,2.8-4.7,2.6-6.3c-0.2-0.9-0.7-1.7-1.7-2.4l-1.6-1.1l2.3-3.1
				l20.7,15.1l-2.3,3.1l-1.6-1.2c-0.9-0.7-1.9-1-2.8-0.9c-1.6,0.2-3.3,1.6-5.2,4.3l-33.8,46.2l11.3,8.3
				C749.4,351.4,754.4,352,760.4,348.3z"/>
			<path class="st0" d="M777.8,380.5l-2.8,2.7l-15.9-16.5l2.8-2.7l1.3,1.4c0.7,0.7,1.4,1,2.2,1c1.5,0,3.4-1.2,5.8-3.6l18.9-18.3
				c2.4-2.3,3.6-4.2,3.7-5.7c0.1-0.9-0.4-1.5-1-2.1l-1.5-1.6l2.8-2.7l1.1,0.8l10.8,7.9l2.1,2.2l-28.8,27.8c-2.4,2.4-3.7,4.2-3.8,5.7
				c-0.1,0.8,0.2,1.5,0.9,2.2L777.8,380.5z M808.1,324.6c2.7-2.6,7-2.5,9.6,0.2c2.6,2.7,2.5,7-0.2,9.6c-2.7,2.6-7,2.5-9.6-0.2
				C805.3,331.5,805.4,327.2,808.1,324.6z"/>
			<path class="st0" d="M859.5,364.8L859.5,364.8c0.1,0.1,0.1,0.2,0.2,0.2c0.1,0.1,0.1,0.1,0.2,0.2l0.2,0.1l0.1,0.3
				c1.1,1.6,2,3.3,2.5,5.1c0.2,0.8,0.3,1.6,0.3,2.5c0,1.4-0.4,3.1-1,4.3c-1.3,2.6-4.8,3.9-7.6,2.9l0,0c-1-0.4-1.8-1-2.4-1.8
				c-0.4-0.5-0.7-1.1-0.8-1.7c-0.5-1.6,0-3.3,0.4-4.9l0-0.1c0.3-0.9,0.5-1.6,0.5-2.4c0.2-1.9-0.2-3.6-1.2-5c-0.4-0.5-0.9-1-1.4-1.3
				c-1.7-1.2-4-1.3-6.3-0.3c-1.3,0.6-2.8,1.6-5.9,3.9l-0.2,0.1c-0.3,0.2-0.7,0.5-1,0.8c-0.4,0.3-0.8,0.6-1.3,0.9l-3.6,2.7l5.7,7.7
				l-4.2,3.1l-5.7-7.7l-28.1,20.9c-2.6,2-4.1,3.6-4.3,5.1c-0.2,0.8,0.1,1.5,0.7,2.4l1.1,1.5l-3.1,2.3l-13.7-18.4l3.1-2.3l1.1,1.4
				c0.7,0.9,1.3,1.3,2.2,1.4c1.5,0.1,3.5-0.8,6.2-2.8l28-20.8l-5.4-7.3l4.2-3.1l5.5,7.4l1.7-1.3c0.8-0.6,1.1-0.8,1.2-0.9
				c3.3-2.2,5.6-2.8,7.8-3.4l0.8-0.2c2.3-0.6,5.2-0.7,8.7-0.4C850.4,356.6,855.3,359.5,859.5,364.8z"/>
			<path class="st0" d="M829.8,410.7c-3.2,1.5-6.2,3.4-8.6,5.6c-2.8,2.5-4.8,5.4-5.6,8.2c-1,3.2-0.7,6.9,0.9,10c0.5,1,1.2,2,2,2.8
				c3,3.1,7.7,4.9,12.7,4.8l1.7-0.1l0,2.4c0,0.1,0,0.2,0,0.3c0,0,0,0.1,0,0.1v0c0,0.1,0,0.1,0,0.2c0,0.1,0,0.2,0,0.3l0,1.4l-1.4,0.2
				c-6.7,0.8-13.6-1.4-18-5.6c-1.6-1.5-2.9-3.3-4-5.4c-1.2-2.3-2-4.8-2.4-7.6c-0.8-5.2,0-10.3,2.2-14.8c2.8-5.8,8.5-10.8,15.2-13.4
				c5.1-2,10.6-2.6,15.5-1.7c6.7,1.3,12.5,5.5,15.8,11.2c0.1,0.2,0.2,0.4,0.4,0.7c2.5,4.9,3.1,10.7,1.6,15.8
				c-1.7,5.7-5.9,10.7-11.2,13.4l-1.5,0.7L829.8,410.7z M834.4,408.8l10,19.4c3.2-1.7,5.7-4.4,6.9-7.3c1.1-2.7,1-5.6-0.2-8
				c-0.3-0.5-0.6-1-0.9-1.4c-1.5-1.8-4-3.1-6.9-3.5C840.1,407.7,837.1,407.9,834.4,408.8z"/>
		</g>
		<g>
			<path class="st0" d="M330.6,669c-2.4,1.1-4.9,1.7-7.8,1.8c-6.2,0.2-11.7-3.4-14.4-5.5c-3.9-3.1-7.2-7.3-9.5-12.2
				c-1.4-2.9-2.4-6-3-9.1c-1.2-6.1-1.3-11.7-1.3-12.1c-0.1-1.4-1.5-1.6-1.5-1.6l-1.4-3l18.9-9l1.6,3.3l-0.9,0.8
				c-7.2,6.5-10.6,12.7-10.4,19.2c0.1,2.2,0.5,4.5,1.3,6.6c0.3,0.7,0.6,1.5,0.9,2.2c2.3,4.9,7,10.3,13.2,10.7
				c7,0.4,11-5.3,11.8-11.2c0.5-3.3,0.1-6.6-0.2-9.5l0-0.1l-0.3-3.4c-0.8-7.9-1.8-16.9,1.8-24c3.5-6.8,12.4-10.6,20.3-8.6
				c2.5,0.7,5.1,1.8,7.2,3.3c4,2.7,7.2,6.8,9.8,12.1l0,0.1c2,4.1,3.4,8.9,4.1,13.6c0.1,1,0.4,3.4,0.4,3.5c0.1,1.4,1.5,1.6,1.5,1.6
				l0.4,0.8l1,2.1l0,0l0,0l-4.5,2.1v0l-12.9,6.2l-1.6-3.3l0.8-0.8c2.1-2,6-7.2,7.5-10.8c1.1-2.6,1.2-5.8,0.3-9.2
				c-0.4-1.6-0.9-3-1.6-4.3c-0.7-1.4-1.4-2.6-2.3-3.7c-2.9-3.5-8.4-6.2-13.5-3.8c-7.8,3.7-6.5,15.2-6,20.1l0.2,1.8
				c0.9,7.4,1.9,15.1-0.6,22.4C338.1,663.3,335,666.9,330.6,669z"/>
			<path class="st0" d="M355.4,689.7c-2.8,2.1-5.3,4.6-7.2,7.3c-2.2,3.1-3.5,6.3-3.8,9.2c-0.3,3.4,0.8,6.9,3,9.6
				c0.7,0.9,1.6,1.7,2.5,2.3c3.6,2.4,8.6,3.2,13.4,2l1.6-0.4l0.5,2.3c0,0.1,0,0.2,0.1,0.3c0,0,0,0.1,0,0.1l0,0c0,0.1,0,0.1,0,0.2
				c0,0.1,0,0.2,0.1,0.3l0.3,1.4l-1.3,0.5c-6.4,2.2-13.6,1.5-18.8-1.7c-1.9-1.1-3.6-2.6-5-4.4c-1.6-2-3-4.3-4-6.9
				c-1.9-4.9-2.2-10.1-1-14.9c1.6-6.3,6.1-12.4,12-16.3c4.6-3,9.8-4.8,14.8-4.9c6.8-0.2,13.4,2.7,17.8,7.6c0.2,0.2,0.3,0.4,0.5,0.6
				c3.5,4.2,5.3,9.8,4.9,15.1c-0.5,5.9-3.5,11.7-8.1,15.5l-1.3,1L355.4,689.7z M359.5,686.9l13.9,16.9c2.7-2.3,4.6-5.5,5.2-8.6
				c0.5-2.8-0.2-5.7-1.9-7.7c-0.4-0.4-0.8-0.8-1.2-1.2c-1.9-1.5-4.5-2.2-7.4-2C364.9,684.5,362,685.4,359.5,686.9z"/>
			<path class="st0" d="M415.9,720.1l-3.6,4.7c5.7-0.6,11.6,0.7,15.8,3.7c0.2,0.1,0.4,0.3,0.6,0.4c3.3,2.5,5.2,5.9,5.7,10
				c0.4,3.5-0.8,7.6-3.4,11.4l0,0l-5.6,7.4c-4.3,5.7-9.7,12.6-9.7,12.6c-2.1,2.7-3,4.7-2.9,6.2c0,0.2,0.1,0.4,0.1,0.6
				c0.1,0.4,0.4,0.8,0.9,1.3c0.1,0.1,0.4,0.3,0.6,0.5c0.1,0,0.1,0.1,0.1,0.1l1,0.8l-2.4,3.1l-18.2-14l2.4-3.1l1,0.7
				c0.3,0.3,0.7,0.5,1,0.8c0.5,0.3,1.2,0.5,1.8,0.3c1.5-0.3,3.2-1.7,5.2-4.4l0.5-0.7c9.2-12.1,14.3-18.8,14.7-19.3
				c3.5-4.8,3.7-8.5,0.4-11c-5.3-4.1-12.4-2-14.3-1.4l-16.1,21c-2.1,2.7-3,4.7-2.9,6.2c0.1,0.8,0.5,1.5,1.3,2.1l1.5,1.2l-2.4,3.1
				l-18.2-14l2.4-3.1l1.5,1.2c0.8,0.6,1.5,0.8,2.3,0.7c1.5-0.3,3.2-1.7,5.2-4.4l15.3-20c2.5-3.1,3.7-5.4,3.5-7
				c-0.1-0.9-0.6-1.5-1.5-2.2l-0.1-0.1l-1.4-1.1l2.4-3.1l13,6.9L415.9,720.1z"/>
			<path class="st0" d="M482.2,763.2l4.3-9.7c1.4-3,1.8-5.2,1.3-6.7c-0.3-0.8-1-1.2-1.9-1.7l-1.8-0.8l1.6-3.5l14.2,3.6l2.8,1.3
				l-26.2,59.1c-1,3.5,0.2,4.6,1.6,5.2l1.7,0.8l-1.6,3.5l-12.5-5.6l-0.4-4.8c-4.7,1.6-9.3,1.4-13.4-0.4
				c-11.8-5.2-16.1-18.7-10.4-32.8c0.3-0.7,0.5-1.2,0.7-1.7c6.7-13.8,19.2-19.5,31.2-14.2C478.1,757,480.8,760.6,482.2,763.2z
				 M479.6,769.1c-0.6-1.6-2.4-5.6-7.3-7.8c-1.7-0.8-3.4-1.1-5-1.1c-1.2,0-2.4,0.3-3.5,0.9c-1.3,0.6-2.6,1.6-3.8,2.8
				c-1.2,1.2-2.4,2.7-3.5,4.4c-2.4,3.7-4.3,7.9-5.7,12.5c-0.6,2-1,3.9-1.2,5.8c-0.1,1.8-0.1,3.5,0.3,5c0.8,3.7,3.7,5.6,6,6.7
				c1.4,0.6,3,1.1,4.6,1.3c1.5,0.2,3,0.1,4.4-0.3c0.4-0.1,1.2-0.5,1.8-0.7L479.6,769.1z"/>
			<path class="st0" d="M525.3,773.3l-1.3,6.2c4.5-2.7,10.9-4.8,16.3-3.9l0,0c0.7,0.2,1.4,0.3,2.1,0.7c1.2,0.6,2.3,1.6,3,2.6
				c0.7,1,0.9,2.3,0.8,3.6c-0.2,1.4-0.9,2.8-2,3.8c-1.3,1.1-2.7,1.5-4.1,1.2c-0.1,0-0.3-0.1-0.4-0.1c-1.4-0.4-2.5-1.4-3.6-2.4
				l-0.1-0.1c-0.5-0.4-1-0.9-1.4-1.1c-0.9-0.6-1.9-1.1-2.9-1.3c-0.8-0.2-1.5-0.2-2.2,0c-1.7,0.5-4,1.8-7,3.9
				c-2.3,10.8-5.5,26-5.5,26c-0.7,3.3-0.7,5.6,0.1,6.8c0.4,0.7,1.1,1.1,2,1.3l1.9,0.4l-0.8,3.8l-22.5-4.7l0.8-3.8l1.6,0.3
				c0.1,0,0.1,0,0.2,0c1.1,0.2,1.8,0.1,2.5-0.4c1.1-0.8,2-2.6,2.7-5.5c0.1-0.5,5.5-26.2,5.6-26.5c0.7-3.3,0.7-5.5-0.1-6.8
				c-0.5-0.8-1.2-1.1-2.4-1.3l0,0l-1.7-0.4l0.8-3.8l14.5,0.5L525.3,773.3z"/>
			<path class="st0" d="M574.6,827l-0.2,3.9l-22.9-1.4l0.2-3.9l1.9,0.1c1,0.1,1.7-0.2,2.3-0.8c1.1-1,1.7-3.2,1.9-6.6l1.6-26.2
				c0.2-3.3-0.2-5.5-1.1-6.7c-0.5-0.7-1.3-0.8-2.2-0.9l-2.2-0.1l0.2-3.9l1.4-0.1l13.3-1.5l3,0.2l-2.4,40c-0.2,3.4,0.2,5.6,1.1,6.7
				c0.5,0.6,1.2,0.9,2.2,1L574.6,827z M559.1,765.4c0.2-3.7,3.5-6.6,7.2-6.4c3.7,0.2,6.6,3.5,6.4,7.2c-0.2,3.7-3.5,6.6-7.2,6.4
				C561.7,772.4,558.9,769.2,559.1,765.4z"/>
			<path class="st0" d="M585.1,784.4l-1.6,0.2l-0.4-3.9l21.6-2.3l0.4,3.9l-1.8,0.2c-1.2,0.1-1.5,0.5-1.7,0.9
				c-0.4,0.9-0.1,2.4,0.9,4.3l15,26.9c1.7-7.4,6.2-26.8,6.4-27.7c0.4-1.9,0.9-4.6-0.2-5.9c-0.2-0.3-0.7-0.7-1.9-0.5l-1.9,0.2
				l-0.4-3.8l16.3-1.8l0.4,3.9L635,779c-0.1,0-3.6,0.4-4.7,4.7l-9.9,43.1l-3.8,15.4c-1.8,7.3-6.4,12.4-11.7,12.9
				c-4.6,0.5-9.6-1.4-10.2-6c-0.2-1.4,0.2-2.8,0.9-3.9c0.8-1.2,2.1-1.9,3.5-2.1c2.4-0.3,3.9,1.2,5.1,2.4c1,0.9,1.8,1.8,2.8,1.6
				c1.6-0.2,2.7-2,3.3-3.6c0.1-0.3,0.7-2.1,3-11.1l0.5-2L590,788.3C588,784.8,586.6,784.2,585.1,784.4z"/>
			<path class="st0" d="M676.7,779.7c-0.5-1.5-1.6-4.8-1.8-5.3c-0.3-0.7-0.6-1.2-0.9-1.7c-1.1-1.3-2.5-2.1-4.4-2.6
				c-1.9-0.5-3.9-0.4-5.9,0.3c-1.4,0.5-2.5,1.2-3.4,2.2c-1.2,1.4-1.9,3.1-1.9,5c0,0.8,0.1,1.7,0.2,2.3l0,0.1
				c0.2,1.5,0.4,3.1-0.1,4.6l0,0c-0.6,1.5-1.8,2.6-3.1,3.1c-1.9,0.6-3.7,0.3-5-1.1c-2-2.1-2.3-6-1.4-8.6c0.6-1.6,1.5-3.3,2.6-4.7
				c2.9-3.7,7.2-6.6,12.1-8.2c1.9-0.6,3.7-1,5.6-1.2c3.7-0.4,8.8,0.1,11.7,1.9c1.3,0.8,2.6,2,3.5,3.4c1.5,2.2,2.4,4.9,3.1,6.9
				c0.1,0.3,1.4,4.1,4.1,12.4l0.1,0.2c1.5,4.5,3.2,9.5,3.2,9.7c0.6,1.8,1.4,3.9,2.7,5.1c0.5,0.4,1,0.6,1.6,0.6
				c0.4,0,0.7-0.1,0.9-0.1c0.1,0,0.1,0,0.2-0.1c0.1,0,0.3-0.1,0.3-0.1l0.7-0.2l1.2,3.7l-8.7,2.9c-4.6,1.3-6.9-0.4-7.9-2.1l-2.1,2.5
				c-3.2,3.5-7.2,6.2-11.4,7.6c-1.6,0.5-3.2,0.9-4.7,1c-3.2,0.2-6.6-0.8-9.1-2.9c-1.6-1.2-2.9-3.4-3.7-4.9c-0.3-0.6-0.5-1.2-0.8-1.9
				c-2.5-6.8,0.5-13.1,3.8-16.4c4-4,8.1-6.5,11.7-8.8l0.1-0.1C672.5,782.8,674.8,781.4,676.7,779.7z M678.4,784.9
				c-1.5,1.3-2.9,2.3-4.3,3.3c-3.4,2.5-6.6,4.8-8.6,9.2c-1,2.2-1.1,4.7-0.2,7l0.1,0.2c0.4,1.1,1.4,4.1,5.8,4.9
				c0.8,0.1,2.6,0.1,4.7-0.7c2.2-0.7,4.3-1.9,6.3-3.5c1-0.8,1.9-1.8,2.3-2.4L678.4,784.9z"/>
			<path class="st0" d="M789,734L789,734l-0.7-2.3l2.5-2.1l10.2,12.3l-22,18.3l-18.7,15.6l-2.5-3l1.3-1.1c1.1-0.9,1.6-1.7,1.7-2.7
				c0.2-1.5-0.8-3.6-2.9-6.1L725.6,724c-2.2-2.6-3.9-3.9-5.5-4c-0.9-0.1-1.8,0.3-2.8,1.1l-1.5,1.2l-2.5-3L733,703l2.5,3l-1.5,1.3
				c-0.9,0.7-1.4,1.6-1.5,2.5c-0.2,1.6,0.8,3.6,2.9,6.1l36.6,44l10.7-8.9C789.4,745.4,791.1,740.7,789,734z"/>
			<path class="st0" d="M766.2,683.7c-2.9-2.4-3.2-6.7-0.8-9.6s6.7-3.2,9.6-0.8s3.2,6.7,0.8,9.6
				C773.4,685.8,769.1,686.1,766.2,683.7z M824.9,708l3,2.5l-14.8,17.6l-3-2.5l1.2-1.5c0.6-0.7,0.9-1.5,0.8-2.3
				c-0.2-1.5-1.6-3.2-4.1-5.4l-20.1-16.9c-2.6-2.2-4.5-3.2-6-3.1c-0.9,0-1.4,0.5-2,1.2l-1.4,1.7l-3-2.5l0.7-1.2l6.8-11.5l2-2.3
				l30.6,25.8c2.6,2.2,4.6,3.2,6.1,3.2c0.8,0,1.5-0.4,2.1-1.1L824.9,708z"/>
			<path class="st0" d="M787.2,631.2L787.2,631.2c0.1-0.1,0.1-0.2,0.2-0.3c0-0.1,0.1-0.2,0.1-0.2l0-0.2l0.2-0.2
				c1.1-1.6,2.4-3,3.9-4.1c0.7-0.5,1.4-0.9,2.2-1.2c1.3-0.5,3-0.7,4.4-0.6c2.9,0.3,5.3,3.1,5.4,6.1l0,0c0,1-0.3,2-0.9,2.9
				c-0.3,0.5-0.8,1-1.3,1.4c-1.3,1-3.1,1.2-4.7,1.4l-0.1,0c-0.9,0.1-1.7,0.1-2.4,0.3c-1.8,0.5-3.3,1.5-4.2,2.9
				c-0.4,0.6-0.6,1.2-0.8,1.8c-0.5,2,0.2,4.2,2,6c1,1,2.5,2,5.8,4.1l0.2,0.1c0.3,0.2,0.7,0.5,1.1,0.7c0.4,0.3,0.9,0.6,1.3,0.9
				l3.8,2.4l5.2-8.1l4.4,2.8l-5.2,8.1l29.5,18.8c2.8,1.8,4.8,2.5,6.3,2.2c0.8-0.1,1.4-0.6,2-1.5l1-1.6l3.3,2.1l-12.3,19.4l-3.3-2.1
				l1-1.5c0.6-0.9,0.8-1.7,0.6-2.5c-0.4-1.4-2-3-4.8-4.8l-29.4-18.7l-4.9,7.7l-4.4-2.8l5-7.8l-1.8-1.2c-0.9-0.6-1.1-0.7-1.3-0.8
				c-3.3-2.3-4.6-4.2-5.9-6.1l-0.5-0.6c-1.4-2-2.5-4.6-3.5-8C782.8,642.6,783.7,637,787.2,631.2z"/>
			<path class="st0" d="M838.5,638.3c3.2,1.5,6.6,2.5,9.8,3c3.7,0.5,7.2,0.2,9.9-1c3.1-1.3,5.8-4,7.1-7.1c0.5-1.1,0.7-2.2,0.9-3.3
				c0.5-4.3-1.2-9.1-4.6-12.8l-1.1-1.2l1.8-1.5c0.1-0.1,0.2-0.1,0.2-0.2c0,0,0.1,0,0.1-0.1l0,0c0.1,0,0.1-0.1,0.2-0.1
				c0.1-0.1,0.1-0.1,0.2-0.2l1.1-0.9l1,1c4.9,4.6,7.7,11.3,7.3,17.4c-0.1,2.2-0.7,4.4-1.5,6.5c-1,2.4-2.4,4.6-4.3,6.7
				c-3.5,4-7.9,6.7-12.7,7.9c-6.3,1.6-13.8,0.4-20.1-3c-4.8-2.6-8.8-6.5-11.3-10.8c-3.3-5.9-3.9-13.1-1.6-19.3
				c0.1-0.2,0.2-0.5,0.3-0.7c2.1-5.1,6.2-9.2,11.1-11.4c5.4-2.4,11.9-2.4,17.5-0.1l1.5,0.6L838.5,638.3z M834.1,636l8.4-20.2
				c-3.3-1.3-7-1.5-10-0.6c-2.7,0.9-5,2.9-6,5.3c-0.2,0.5-0.4,1.1-0.5,1.6c-0.4,2.4,0.2,5,1.7,7.5
				C829.5,632.3,831.6,634.5,834.1,636z"/>
		</g>
	</g>
	<path class="st1" d="M633.4,470.1c0,5.7,0,11.4,0,17.1C633.9,481.1,633.9,475.4,633.4,470.1z"/>
	<linearGradient id="SVGID_1_" gradientUnits="userSpaceOnUse" x1="605.8415" y1="402.3804" x2="635.1918" y2="441.8198">
		<stop  offset="4.469024e-03" style="stop-color:#E3D4C6"/>
		<stop  offset="1" style="stop-color:#F19A5F"/>
	</linearGradient>
	<path class="st2" d="M633.4,470.1c0-8.8,0-17.5,0-26.2c0-10.4,0.1-20.7,10.9-29.1c-21.7-5.5-41-11.4-60.6-15.2
		c-3.4-0.7-6.9-1.2-10.3-1.6C573.4,398,628.1,416.2,633.4,470.1z"/>
	<polygon class="st3" points="633.4,487.2 633.4,487.2 633.4,487.2 	"/>
	
		<linearGradient id="SVGID_00000096772485298526298900000014442195531108147876_" gradientUnits="userSpaceOnUse" x1="532.6886" y1="399.3149" x2="651.2597" y2="541.1768">
		<stop  offset="1.385225e-07" style="stop-color:#E57152"/>
		<stop  offset="1" style="stop-color:#B16776"/>
	</linearGradient>
	<path style="fill:url(#SVGID_00000096772485298526298900000014442195531108147876_);" d="M527.9,421.2
		c7.9-13.2,26.3-19.7,43.6-15.2c20.8,5.4,32.3,17.5,32.7,35.2c0.3,17.4,0.1,34.8,0.2,52.2c0,4.5-0.3,8.9,4.1,12.3
		c7.8,6,15.1,12.7,24.9,21c0-13.6,0-26.7,0-39.5c0,0,0,0,0,0c0-5.7,0-11.4,0-17.1c-5.2-53.9-59.9-72-60-72.1
		c-13.9-1.5-27.8-0.4-41,5.7c-14.4,6.6-24.1,18.3-28.7,31.8c6,4.1,13.6,9.2,22.1,15.1C522.1,440.5,522.7,429.9,527.9,421.2z"/>
	
		<linearGradient id="SVGID_00000152224581631391151350000014943167043771879095_" gradientUnits="userSpaceOnUse" x1="553.1058" y1="535.7596" x2="692.5195" y2="662.3326">
		<stop  offset="4.469291e-03" style="stop-color:#6E4D5F"/>
		<stop  offset="1" style="stop-color:#EE9A61"/>
	</linearGradient>
	<path style="fill:url(#SVGID_00000152224581631391151350000014943167043771879095_);" d="M723.5,598.7c-1.1,1.3-2.5,2.3-3.2,3.8
		c-13.6,31.3-39.9,36.1-69.7,33.2c-13.3-1.3-16.5-7.5-10.9-19.8c1.8-3.9,3.2-7.7,4.4-11.6c-3.7-67.6-86.2-97.3-127.6-108
		c0.7,0.8,1.5,1.6,2.3,2.4c14.7,14.9,33.1,24.4,50.4,35.5c16.7,10.6,33.2,21.4,43.5,39c16.4,28.1,6.5,57.3-23.2,70.2
		c-4.2,1.8-9.9,1.4-12.9,6.7c42.6,0,84.7,0,126.7,0c3.7,0,8.1,0.4,9.4-3.9c4.7-15.4,9-30.9,13.5-46.4
		C725.3,599.5,724.4,599.1,723.5,598.7z"/>
	
		<linearGradient id="SVGID_00000084503302375646223680000011072896444389152951_" gradientUnits="userSpaceOnUse" x1="466.2617" y1="489.3507" x2="651.5352" y2="541.9366">
		<stop  offset="0" style="stop-color:#F2A263"/>
		<stop  offset="1" style="stop-color:#DD6C63"/>
	</linearGradient>
	<path style="fill:url(#SVGID_00000084503302375646223680000011072896444389152951_);" d="M644.2,604.3c6-20.2,3.2-39.9-9-59
		c-8.3-13-19.6-22.8-32-31.7c-22.2-16-48-27.1-67.4-47.1c-4.7-4.8-8-10.3-10.1-16c-8.5-5.9-16.1-11-22.1-15.1
		c-6.8,19.6-2.9,43.1,13,60.9C558,507,640.5,536.8,644.2,604.3z"/>
	
		<linearGradient id="SVGID_00000159444847049488053120000004019452019052104838_" gradientUnits="userSpaceOnUse" x1="501.1172" y1="510.0338" x2="537.8051" y2="647.0017">
		<stop  offset="4.469024e-03" style="stop-color:#E3D4C6"/>
		<stop  offset="1" style="stop-color:#F19A5F"/>
	</linearGradient>
	<path style="fill:url(#SVGID_00000159444847049488053120000004019452019052104838_);" d="M483.5,522.8c-5.9,26.9-2.5,49.7,4.5,72.3
		c6.9,22.5,19.8,40.3,41.8,49.9c13.9,6.1,27.9,6.7,42.3-5C551,633,536,620.4,525,602.9c0.3,0,0.5,0.1,0.8,0.2
		c-26.8-30.4-38.9-68.6-42.1-79.9C483.6,523.1,483.6,522.9,483.5,522.8z"/>
	<path class="st3" d="M579.6,621c0-3.2-0.2-6.2-0.5-9.1C579.2,615.1,579.4,618.2,579.6,621C579.6,621,579.6,621,579.6,621z"/>
	
		<linearGradient id="SVGID_00000053514912879167097850000012974853580297042832_" gradientUnits="userSpaceOnUse" x1="483.7317" y1="577.2984" x2="579.5566" y2="577.2984">
		<stop  offset="4.469158e-03" style="stop-color:#006838"/>
		<stop  offset="1" style="stop-color:#DDD5CA"/>
	</linearGradient>
	<path style="fill:url(#SVGID_00000053514912879167097850000012974853580297042832_);" d="M565.9,629c8.9,4.6,13.5,3,13.7-8
		c-0.2-2.9-0.3-6-0.5-9.2c-2.6-19.4-14.5-33.2-31.3-43.4c-21.9-13.2-47.3-20.9-64-45.3c3.1,11.3,15.3,49.5,42.1,79.9
		c6.2,1.3,10.5,5.4,14.9,9.3C548.3,619.2,556.9,624.3,565.9,629z"/>
	<g>
		<path class="st0" d="M852,503.7c-2.2,9.8-0.9,18.1,1.6,26.3c2.5,8.2,7.2,14.6,15.2,18.1c5.1,2.2,10.1,2.4,15.4-1.8
			c-7.6-2.6-13.1-7.1-17.1-13.5c0.1,0,0.2,0,0.3,0.1c-9.7-11-14.1-24.9-15.3-29C852.1,503.8,852,503.7,852,503.7z"/>
		<path class="st0" d="M881.9,542.2c3.2,1.7,4.9,1.1,5-2.9c-0.1-1-0.1-2.2-0.2-3.3c-1-7-5.2-12.1-11.4-15.8
			c-7.9-4.8-17.2-7.6-23.2-16.4c1.1,4.1,5.5,18,15.3,29c2.3,0.5,3.8,1.9,5.4,3.4C875.5,538.7,878.7,540.6,881.9,542.2z"/>
	</g>
	<g>
		<path class="st0" d="M290.2,503.6c-2.2,10.1-0.9,18.7,1.7,27.2c2.6,8.5,7.5,15.2,15.8,18.8c5.3,2.3,10.5,2.5,15.9-1.9
			c-7.9-2.7-13.6-7.4-17.7-14c0.1,0,0.2,0,0.3,0.1c-10.1-11.4-14.7-25.8-15.8-30.1C290.3,503.6,290.2,503.6,290.2,503.6z"/>
		<path class="st0" d="M321.2,543.5c3.3,1.7,5.1,1.1,5.1-3c-0.1-1.1-0.1-2.2-0.2-3.5c-1-7.3-5.4-12.5-11.8-16.3
			c-8.2-5-17.8-7.9-24.1-17c1.2,4.2,5.7,18.7,15.8,30.1c2.3,0.5,4,2,5.6,3.5C314.6,539.8,317.8,541.8,321.2,543.5z"/>
	</g>
</g>
</svg>
