<?xml version="1.0" encoding="utf-8"?>
<!-- Generator: Adobe Illustrator 26.0.2, SVG Export Plug-In . SVG Version: 6.00 Build 0)  -->
<svg version="1.1" id="Layer_1" xmlns="http://www.w3.org/2000/svg" xmlns:xlink="http://www.w3.org/1999/xlink" x="0px" y="0px"
	 viewBox="0 0 1080 1080" style="enable-background:new 0 0 1080 1080;" xml:space="preserve">
<style type="text/css">
	.st0{fill:#586866;}
	.st1{fill:none;stroke:#586866;stroke-miterlimit:10;}
	.st2{fill:#586866;stroke:#586866;stroke-miterlimit:10;}
	.st3{fill:none;}
	.st4{fill:url(#SVGID_1_);}
	.st5{fill:#C7C86B;}
	.st6{fill:url(#SVGID_00000044875961867930961540000001967163770849262259_);}
	.st7{fill:url(#SVGID_00000030477628905398949930000001578837263632035718_);}
	.st8{fill:url(#SVGID_00000064346613020331832120000000689983552269200524_);}
	.st9{fill:url(#SVGID_00000038380599860802442890000015719248908236001189_);}
	.st10{fill:url(#SVGID_00000080909865071621220530000006861318790840280718_);}
</style>
<g>
	<g>
		<g>
			<g>
				<path class="st0" d="M689.8,533c0-6.6,0-11.9,0-17.3c0-6.5,0-13-0.1-19.4c-0.1-9.1-2-11.4-11.8-13.5c9.8-2.1,18.5-3.9,27.6-5.9
					c0,1.7,0,3.3,0,4.9c0,33.9,0,67.8,0,101.7c0,1,0,2.1,0,3.1c0.1,9.6,1.3,11.4,10.6,14.1c-7.9,1.2-15.2,2.2-22.5,3.4
					c-2.1,0.4-3-0.2-3.1-2.3c-0.1-4.1-0.4-8.2-0.6-12.2c-1.2-0.5-1.4,0.5-1.7,1c-14,20.5-43.3,19.4-55.8-2.1
					c-11.1-19.1-6.1-47.1,11.2-59.4c11.5-8.2,24.1-9.5,37.2-3.5C684.2,526.9,686.6,529.4,689.8,533z M689.9,563.6
					C689.9,563.6,689.8,563.6,689.9,563.6c-0.1-6.2,0-12.4-0.1-18.6c-0.1-5.8-2.4-10.9-6.6-14.9c-11.3-10.9-28.5-6.7-35,8.6
					c-3.8,9-4.7,18.5-4,28.2c0.6,9.1,2.2,17.9,8.1,25.2c5.6,7,15.6,9.7,24,6.6c8.2-3,13.6-10.8,13.6-19.6
					C689.9,573.9,689.9,568.7,689.9,563.6z"/>
			</g>
			<g>
				<path class="st1" d="M689.8,533c0-6.6,0-11.9,0-17.3c0-6.5,0-13-0.1-19.4c-0.1-9.1-2-11.4-11.8-13.5c9.8-2.1,18.5-3.9,27.6-5.9
					c0,1.7,0,3.3,0,4.9c0,33.9,0,67.8,0,101.7c0,1,0,2.1,0,3.1c0.1,9.6,1.3,11.4,10.6,14.1c-7.9,1.2-15.2,2.2-22.5,3.4
					c-2.1,0.4-3-0.2-3.1-2.3c-0.1-4.1-0.4-8.2-0.6-12.2c-1.2-0.5-1.4,0.5-1.7,1c-14,20.5-43.3,19.4-55.8-2.1
					c-11.1-19.1-6.1-47.1,11.2-59.4c11.5-8.2,24.1-9.5,37.2-3.5C684.2,526.9,686.6,529.4,689.8,533z M689.9,563.6
					C689.9,563.6,689.8,563.6,689.9,563.6c-0.1-6.2,0-12.4-0.1-18.6c-0.1-5.8-2.4-10.9-6.6-14.9c-11.3-10.9-28.5-6.7-35,8.6
					c-3.8,9-4.7,18.5-4,28.2c0.6,9.1,2.2,17.9,8.1,25.2c5.6,7,15.6,9.7,24,6.6c8.2-3,13.6-10.8,13.6-19.6
					C689.9,573.9,689.9,568.7,689.9,563.6z"/>
			</g>
		</g>
		<g>
			<path class="st0" d="M376.7,476.5c12.1-0.1,22.8,3.8,32.4,11.1c1.2,0.9,2.4,1.7,2.5,3.4c0.3,6.3,0.8,12.6,1.1,19
				c0,0.8,0.3,2-1,2.1c-1,0.1-1.3-1-1.7-1.8c-1.6-3.8-3-7.7-4.9-11.3c-5.8-11.1-14-18.9-27.3-19.6c-8.3-0.4-15.8,1.8-21.6,8
				c-6.6,7.1-7.4,17-2,25.2c3.7,5.6,9,9.3,14.8,12.3c8.8,4.5,17.7,8.6,26.6,13c7,3.4,13.8,7.3,19.4,12.9
				c15.5,15.5,14.4,38.6-2.5,52.5c-20,16.5-54,14.8-71.7-3.6c-12.9-13.4-13.7-34.7-1.8-47.8c0.8-0.9,1.5-2.9,2.9-1.9
				c1.7,1.2-0.2,2.3-0.9,3.2c-9.9,13.4-9.2,31.4,2.4,43.8c12.7,13.6,28.6,17.8,46.4,12.5c21-6.3,26.5-32.6,10.4-47.6
				c-7.2-6.7-16.2-10.7-25-14.8c-8.1-3.8-16.3-7.6-23.6-12.9c-10.5-7.7-15.2-17.9-13.1-30.7c2.2-13.1,11-20.7,23.2-24.7
				C366.7,477,371.7,476.5,376.7,476.5z"/>
			<path class="st1" d="M376.7,476.5c12.1-0.1,22.8,3.8,32.4,11.1c1.2,0.9,2.4,1.7,2.5,3.4c0.3,6.3,0.8,12.6,1.1,19
				c0,0.8,0.3,2-1,2.1c-1,0.1-1.3-1-1.7-1.8c-1.6-3.8-3-7.7-4.9-11.3c-5.8-11.1-14-18.9-27.3-19.6c-8.3-0.4-15.8,1.8-21.6,8
				c-6.6,7.1-7.4,17-2,25.2c3.7,5.6,9,9.3,14.8,12.3c8.8,4.5,17.7,8.6,26.6,13c7,3.4,13.8,7.3,19.4,12.9
				c15.5,15.5,14.4,38.6-2.5,52.5c-20,16.5-54,14.8-71.7-3.6c-12.9-13.4-13.7-34.7-1.8-47.8c0.8-0.9,1.5-2.9,2.9-1.9
				c1.7,1.2-0.2,2.3-0.9,3.2c-9.9,13.4-9.2,31.4,2.4,43.8c12.7,13.6,28.6,17.8,46.4,12.5c21-6.3,26.5-32.6,10.4-47.6
				c-7.2-6.7-16.2-10.7-25-14.8c-8.1-3.8-16.3-7.6-23.6-12.9c-10.5-7.7-15.2-17.9-13.1-30.7c2.2-13.1,11-20.7,23.2-24.7
				C366.7,477,371.7,476.5,376.7,476.5z"/>
		</g>
		<g>
			<path class="st0" d="M562.1,602.9c-12,0-24.1,0-36.2,0c0.1-1.6,1.3-1.1,2-1.2c4.4-0.6,6.8-3.3,7.6-7.4c0.5-2.4,0.6-5,0.7-7.5
				c0.1-14.3,0.1-28.6,0.1-42.9c0-0.9,0-1.8,0-2.7c-0.3-8.8-2-10.7-11.7-12.7c7.1-1.5,13-2.7,18.8-4.1c8.6-2.1,8.6-2.1,8.8,6.7
				c0.1,2.7,0,5.5,0.4,8.4c4.4-7.2,10.3-12.4,18-15.5c5.6-2.3,11.5-2.7,17.4-1.7c12.1,2.1,19.8,10.3,20.3,22.7
				c0.5,13.2,0.2,26.5,0.3,39.8c0,1.8-0.1,3.5,0.1,5.3c1,9,1.9,10.1,10.3,12.7c-12,0-24,0-35.9,0c0-0.1,0-0.6,0.1-0.6
				c7.5-2.1,9.1-3.8,9.3-11.6c0.3-14.9,0.6-29.8-0.1-44.6c-0.6-11.8-7.6-18.8-18.2-18.5c-11.4,0.3-21.7,9.8-21.8,20.3
				c-0.1,14.3-0.2,28.6,0.1,42.9C552.6,598.7,554.4,600.6,562.1,602.9z"/>
			<path class="st1" d="M562.1,602.9c-12,0-24.1,0-36.2,0c0.1-1.6,1.3-1.1,2-1.2c4.4-0.6,6.8-3.3,7.6-7.4c0.5-2.4,0.6-5,0.7-7.5
				c0.1-14.3,0.1-28.6,0.1-42.9c0-0.9,0-1.8,0-2.7c-0.3-8.8-2-10.7-11.7-12.7c7.1-1.5,13-2.7,18.8-4.1c8.6-2.1,8.6-2.1,8.8,6.7
				c0.1,2.7,0,5.5,0.4,8.4c4.4-7.2,10.3-12.4,18-15.5c5.6-2.3,11.5-2.7,17.4-1.7c12.1,2.1,19.8,10.3,20.3,22.7
				c0.5,13.2,0.2,26.5,0.3,39.8c0,1.8-0.1,3.5,0.1,5.3c1,9,1.9,10.1,10.3,12.7c-12,0-24,0-35.9,0c0-0.1,0-0.6,0.1-0.6
				c7.5-2.1,9.1-3.8,9.3-11.6c0.3-14.9,0.6-29.8-0.1-44.6c-0.6-11.8-7.6-18.8-18.2-18.5c-11.4,0.3-21.7,9.8-21.8,20.3
				c-0.1,14.3-0.2,28.6,0.1,42.9C552.6,598.7,554.4,600.6,562.1,602.9z"/>
		</g>
		<g>
			<path class="st0" d="M971.9,593.2c-7.6,9.5-17.3,13.4-29.3,11c-7.5-1.5-13.1-5.7-14.6-13.6c-1.5-7.6,1.2-14,7.2-18.8
				c5.5-4.4,12.3-6.2,18.9-8.2c4.8-1.4,9.7-2.5,14.2-4.8c3.9-2,6.1-4.8,5.7-9.5c-0.4-5.4,0.5-10.9-1.6-16.2
				c-3.3-8-12.6-11.3-20.2-7.1c-4.1,2.3-5.2,6.2-5.8,10.3c-0.5,4-1.5,7.7-6.1,8.6c-2.9,0.6-5.3-0.3-6.6-3.1c-1.9-4.1-0.9-7.9,2.1-11
				c8.1-8.2,18.6-9.9,29.4-8.6c16.5,1.9,24.2,10.9,24.2,27.4c0.1,11.6,0,23.3,0,34.9c0,1.6,0,3.2,0.1,4.9c0.5,9.9,4.2,12.2,13.1,7.9
				c-2.8,5.3-9.1,7.9-16.5,6.9c-5.7-0.7-9.9-4.7-11.5-10.7c-0.3-1.1,0.4-4.4-2.3-1.2c-0.2-0.2-0.4-0.5-0.6-0.7
				c0.6-1.6,2.2-2.7,2.2-4.7c0-9.4,0-18.8,0-28.9c-6.4,3.7-12.8,5.3-18.7,8.3c-5.5,2.8-9.7,6.7-11.3,12.8
				c-3.2,12.1,5.3,21.4,17.2,18.9c3.9-0.8,6.9-3,9.8-5.5C971.3,592.9,971.6,593,971.9,593.2z"/>
			<path class="st1" d="M971.9,593.2c-7.6,9.5-17.3,13.4-29.3,11c-7.5-1.5-13.1-5.7-14.6-13.6c-1.5-7.6,1.2-14,7.2-18.8
				c5.5-4.4,12.3-6.2,18.9-8.2c4.8-1.4,9.7-2.5,14.2-4.8c3.9-2,6.1-4.8,5.7-9.5c-0.4-5.4,0.5-10.9-1.6-16.2
				c-3.3-8-12.6-11.3-20.2-7.1c-4.1,2.3-5.2,6.2-5.8,10.3c-0.5,4-1.5,7.7-6.1,8.6c-2.9,0.6-5.3-0.3-6.6-3.1c-1.9-4.1-0.9-7.9,2.1-11
				c8.1-8.2,18.6-9.9,29.4-8.6c16.5,1.9,24.2,10.9,24.2,27.4c0.1,11.6,0,23.3,0,34.9c0,1.6,0,3.2,0.1,4.9c0.5,9.9,4.2,12.2,13.1,7.9
				c-2.8,5.3-9.1,7.9-16.5,6.9c-5.7-0.7-9.9-4.7-11.5-10.7c-0.3-1.1,0.4-4.4-2.3-1.2c-0.2-0.2-0.4-0.5-0.6-0.7
				c0.6-1.6,2.2-2.7,2.2-4.7c0-9.4,0-18.8,0-28.9c-6.4,3.7-12.8,5.3-18.7,8.3c-5.5,2.8-9.7,6.7-11.3,12.8
				c-3.2,12.1,5.3,21.4,17.2,18.9c3.9-0.8,6.9-3,9.8-5.5C971.3,592.9,971.6,593,971.9,593.2z"/>
		</g>
		<g>
			<path class="st0" d="M841.9,524.1c12.6,0,25.2,0,37.8,0c0,0.4,0,0.6-0.1,0.6c-9.5,3-10.5,4.6-6.7,14.1
				c5.6,13.9,11.5,27.7,17.4,41.5c0.5,1.3,0.8,2.8,2.4,3.9c5.8-14.9,11.7-29.5,17.1-44.4c3.1-8.6,0.5-11.9-10.1-15.6
				c9.6,0,19.1,0,28.7,0c-11.7,2.6-14,13-17.7,22c-9.7,23.7-18.7,47.6-29.2,71c-3.8,8.5-8.1,16.7-14.3,23.7
				c-4.7,5.3-10.4,9.2-17.6,10.1c-2.8,0.4-5.6,0-8.1-1.4c-3.4-1.9-4.9-5.6-3.7-9c1.3-3.5,4.6-5.3,8.5-4.6
				c14.5,2.7,21.4-0.5,28.9-13.4c9.7-16.8,9.6-16.8,1.9-34.2c-6.9-15.4-13.4-31-20.1-46.5C853.7,534.6,852,525.9,841.9,524.1z"/>
			<path class="st1" d="M841.9,524.1c12.6,0,25.2,0,37.8,0c0,0.4,0,0.6-0.1,0.6c-9.5,3-10.5,4.6-6.7,14.1
				c5.6,13.9,11.5,27.7,17.4,41.5c0.5,1.3,0.8,2.8,2.4,3.9c5.8-14.9,11.7-29.5,17.1-44.4c3.1-8.6,0.5-11.9-10.1-15.6
				c9.6,0,19.1,0,28.7,0c-11.7,2.6-14,13-17.7,22c-9.7,23.7-18.7,47.6-29.2,71c-3.8,8.5-8.1,16.7-14.3,23.7
				c-4.7,5.3-10.4,9.2-17.6,10.1c-2.8,0.4-5.6,0-8.1-1.4c-3.4-1.9-4.9-5.6-3.7-9c1.3-3.5,4.6-5.3,8.5-4.6
				c14.5,2.7,21.4-0.5,28.9-13.4c9.7-16.8,9.6-16.8,1.9-34.2c-6.9-15.4-13.4-31-20.1-46.5C853.7,534.6,852,525.9,841.9,524.1z"/>
		</g>
		<g>
			<g>
				<path class="st0" d="M514,582.1c-3.9,11.4-11.5,18.8-23.4,21.8c-21.6,5.4-42.8-6.2-48.3-26.8c-6.4-23.4,5.5-47.7,26.8-53.5
					c14.2-3.8,27.9-2.8,38.5,9.2c4.3,4.9,6.3,10.8,7.1,17.3c0.3,3-0.2,4.1-3.6,4c-16.4-0.2-32.7,0-49.1-0.1c-3.2,0-4.3,0.7-4.3,4.1
					c0.1,7.3,0.9,14.4,3.6,21.2c4.1,10.3,11.6,16.6,22.7,17.8c11.9,1.3,21.7-2.7,28.6-12.9c0.2-0.4,0.5-0.7,0.7-1.1
					C513.6,582.8,513.8,582.4,514,582.1z M478.2,552.7c2.9,0,5.9,0,8.8,0c13.1,0,13.8-1,10.3-14.1c-0.2-0.6-0.3-1.1-0.5-1.7
					c-2.5-6.9-6.7-12.2-14.5-13c-7.9-0.8-14,2.5-18.2,9.2c-3.1,5.1-4.7,10.7-5.7,16.5c-0.4,2.4,0.1,3.1,2.5,3
					C466.7,552.6,472.4,552.7,478.2,552.7z"/>
			</g>
			<g>
				<path class="st1" d="M514,582.1c-3.9,11.4-11.5,18.8-23.4,21.8c-21.6,5.4-42.8-6.2-48.3-26.8c-6.4-23.4,5.5-47.7,26.8-53.5
					c14.2-3.8,27.9-2.8,38.5,9.2c4.3,4.9,6.3,10.8,7.1,17.3c0.3,3-0.2,4.1-3.6,4c-16.4-0.2-32.7,0-49.1-0.1c-3.2,0-4.3,0.7-4.3,4.1
					c0.1,7.3,0.9,14.4,3.6,21.2c4.1,10.3,11.6,16.6,22.7,17.8c11.9,1.3,21.7-2.7,28.6-12.9c0.2-0.4,0.5-0.7,0.7-1.1
					C513.6,582.8,513.8,582.4,514,582.1z M478.2,552.7c2.9,0,5.9,0,8.8,0c13.1,0,13.8-1,10.3-14.1c-0.2-0.6-0.3-1.1-0.5-1.7
					c-2.5-6.9-6.7-12.2-14.5-13c-7.9-0.8-14,2.5-18.2,9.2c-3.1,5.1-4.7,10.7-5.7,16.5c-0.4,2.4,0.1,3.1,2.5,3
					C466.7,552.6,472.4,552.7,478.2,552.7z"/>
			</g>
		</g>
		<g>
			<path class="st0" d="M723.9,528.6c9.1-2.1,17.2-3.9,25.3-6c2.8-0.7,2.1,1.1,2.1,2.4c0.1,6,0,12,0,19.3c1.7-3.1,2.7-5.1,3.9-7
				c4.4-7.3,10.1-13,18.8-15c3.9-0.9,7.6-0.6,11.1,1.4c3.2,1.8,4.5,4.7,4.2,8.2c-0.2,3.2-2,5.5-5.1,6.6c-3.5,1.1-6.3,0.1-8.7-2.7
				c-5.7-6.6-12.1-6.6-17.6,0.3c-4.1,5.1-6.7,10.9-6.6,17.8c0.2,10.9,0.1,21.8,0,32.7c0,11.4,0.6,12.4,10.6,15.8
				c0,0.6-0.5,0.7-0.9,0.7c-12,0-24.1,0-36.2,0c0.1-0.5,0.1-1,0.2-1c7.7-1.9,10.1-4.4,10.2-12.4c0.2-16.5,0.2-33,0-49.5
				C735.3,532.5,733.4,530.7,723.9,528.6z"/>
			<path class="st1" d="M723.9,528.6c9.1-2.1,17.2-3.9,25.3-6c2.8-0.7,2.1,1.1,2.1,2.4c0.1,6,0,12,0,19.3c1.7-3.1,2.7-5.1,3.9-7
				c4.4-7.3,10.1-13,18.8-15c3.9-0.9,7.6-0.6,11.1,1.4c3.2,1.8,4.5,4.7,4.2,8.2c-0.2,3.2-2,5.5-5.1,6.6c-3.5,1.1-6.3,0.1-8.7-2.7
				c-5.7-6.6-12.1-6.6-17.6,0.3c-4.1,5.1-6.7,10.9-6.6,17.8c0.2,10.9,0.1,21.8,0,32.7c0,11.4,0.6,12.4,10.6,15.8
				c0,0.6-0.5,0.7-0.9,0.7c-12,0-24.1,0-36.2,0c0.1-0.5,0.1-1,0.2-1c7.7-1.9,10.1-4.4,10.2-12.4c0.2-16.5,0.2-33,0-49.5
				C735.3,532.5,733.4,530.7,723.9,528.6z"/>
		</g>
		<g>
			<path class="st0" d="M804.4,600.4c2.6-2.2,3.8-5.2,3.8-8.6c0-18,0.1-35.9-0.1-53.9c-0.1-5.9-2-7.2-11.4-9.5c9.5-2.1,18.2-4,27-6
				c1,1.3,0.5,3,0.5,4.5c0,20.3,0,40.7,0,61c0,4.3,0.2,8.6,3.5,11.9c-0.5,1.4-1.7,2-3.1,2c-5.9,0-11.8,0-17.7,0
				C805.9,601.9,804.9,601.5,804.4,600.4z"/>
			<path class="st1" d="M804.4,600.4c2.6-2.2,3.8-5.2,3.8-8.6c0-18,0.1-35.9-0.1-53.9c-0.1-5.9-2-7.2-11.4-9.5c9.5-2.1,18.2-4,27-6
				c1,1.3,0.5,3,0.5,4.5c0,20.3,0,40.7,0,61c0,4.3,0.2,8.6,3.5,11.9c-0.5,1.4-1.7,2-3.1,2c-5.9,0-11.8,0-17.7,0
				C805.9,601.9,804.9,601.5,804.4,600.4z"/>
		</g>
		<g>
			<path class="st0" d="M815.6,495.7c-4.3,3.7-6.6,8.9-10.4,13.1c-7-12-0.3-23.6,12-27.4c3.6-1.1,7.3-2.3,10.6-4.4
				c1.6-1,2.3-0.7,2.8,1.1c1.6,6.8,2.8,13.6,0.1,20.4c-3.1,7.9-9.3,11.9-17.5,12.9c-1.9,0.2-3.8,0.4-6,0.5c2.4-5.7,6.8-9.9,9.3-15.3
				c0.6-0.7,2-1.7,1.1-2.4C816.7,493.4,816.3,495.1,815.6,495.7z"/>
			<path class="st1" d="M815.6,495.7c-4.3,3.7-6.6,8.9-10.4,13.1c-7-12-0.3-23.6,12-27.4c3.6-1.1,7.3-2.3,10.6-4.4
				c1.6-1,2.3-0.7,2.8,1.1c1.6,6.8,2.8,13.6,0.1,20.4c-3.1,7.9-9.3,11.9-17.5,12.9c-1.9,0.2-3.8,0.4-6,0.5c2.4-5.7,6.8-9.9,9.3-15.3
				c0.6-0.7,2-1.7,1.1-2.4C816.7,493.4,816.3,495.1,815.6,495.7z"/>
		</g>
		<g>
			<path class="st0" d="M804.4,600.4c0.5,1.1,1.4,1.4,2.5,1.4c5.9,0,11.8,0,17.7,0c1.5,0,2.6-0.5,3.1-2c2.4,1.5,5.2,1.6,7.8,3
				c-12.5,0-25,0-37.5,0c-0.1-0.2-0.1-0.4-0.2-0.5C800,601.7,802.2,601.1,804.4,600.4z"/>
			<path class="st1" d="M804.4,600.4c0.5,1.1,1.4,1.4,2.5,1.4c5.9,0,11.8,0,17.7,0c1.5,0,2.6-0.5,3.1-2c2.4,1.5,5.2,1.6,7.8,3
				c-12.5,0-25,0-37.5,0c-0.1-0.2-0.1-0.4-0.2-0.5C800,601.7,802.2,601.1,804.4,600.4z"/>
		</g>
		<g>
			<path class="st0" d="M972.4,592.5c-0.2,0.2-0.4,0.4-0.5,0.7c-0.3-0.1-0.6-0.3-0.9-0.4c0.3-0.3,0.5-0.6,0.8-0.9
				C972,592,972.2,592.3,972.4,592.5z"/>
			<path class="st1" d="M972.4,592.5c-0.2,0.2-0.4,0.4-0.5,0.7c-0.3-0.1-0.6-0.3-0.9-0.4c0.3-0.3,0.5-0.6,0.8-0.9
				C972,592,972.2,592.3,972.4,592.5z"/>
		</g>
		<g>
			<g>
				<path class="st2" d="M614.8,668.6c-0.5,3-0.9,6-1.4,9.1c-10.2,0-20.3,0-30.6,0c0.2-0.2,0.2-0.4,0.3-0.4c3-1.1,3.4-1.7,3.4-4.8
					c0-10.3,0-20.7,0-31c0-3.8-0.2-4.1-3.9-5.6c4.8,0,9.3,0,14,0c-4,2-4.1,2-4.1,6.5c0,10,0,20,0,30c0,3.6,0.7,4.3,4.2,4.3
					c2.5,0,5,0,7.4,0c4.7-0.1,7.8-2.4,9.5-6.8c0.2-0.5,0.4-0.9,0.5-1.4C614.5,668.5,614.7,668.6,614.8,668.6z"/>
				<path class="st2" d="M687.1,677.7c-4.1,0-8.2,0-12.6,0c0.3-0.3,0.4-0.5,0.5-0.5c2.5-0.4,3.2-2.2,3.2-4.4c0-6.7,0-13.4,0-20.1
					c0-1.2-0.3-1.7-1.6-1.6c-1,0.1-2,0.1-2.9,0c-0.3,0-0.5-0.3-0.7-0.5c0.2-0.2,0.5-0.7,0.7-0.7c1.1-0.1,2.2-0.1,3.2,0
					c1,0.1,1.2-0.3,1.3-1.2c0-2,0-4,0.3-6c1.1-8,9.9-12.1,16.5-7.7c1.4,0.9,2.1,2.2,1.9,3.9c-0.1,1.4-1,2.2-2.3,2.2
					c-1.4,0-2.2-0.7-2.5-2c-0.1-0.5-0.1-1-0.2-1.5c-0.2-1.6-0.9-2.7-2.5-3.2c-1.5-0.4-2.8,0.2-3.9,1.2c-1.4,1.4-1.7,3.3-1.8,5.2
					c-0.1,2.7,0,5.4-0.1,8c0,0.9,0.5,1.1,1.3,1.1c1.7,0,3.4-0.1,5.1,0c0.4,0,0.8,0.5,1.2,0.7c-0.4,0.2-0.8,0.5-1.2,0.5
					c-1.6,0.1-3.3,0.1-5,0c-1,0-1.4,0.2-1.4,1.3c0,6.9,0,13.8,0,20.7c0,2.4,1,3.9,3.8,4.2C687.4,677.4,687.3,677.6,687.1,677.7z"/>
				<path class="st2" d="M738.5,671.1c-0.3,1.9-1.4,3.3-2.7,4.5c-3.7,3.2-10.3,3.7-15.2,1.3c-6.7-3.4-9.5-11.9-6.3-19.2
					c3-6.8,10.8-10,17.9-7.4c5.2,1.9,6.8,6.6,6.9,10.9c0,1.2-0.8,1-1.5,1c-5.2,0-10.3,0-15.5,0c-3.6,0-3.6,0.1-3.1,3.7
					c1,6,5.3,10,10.8,9.9c3.3,0,6-1.3,8.1-3.9C738.1,671.5,738.3,671.3,738.5,671.1z M726.4,660.8
					C726.4,660.9,726.4,660.9,726.4,660.8c1.2,0,2.4,0,3.6,0c4.4,0,4.5-0.1,3.7-4.5c-0.5-2.8-1.8-5.2-4.9-6
					c-2.7-0.7-5.7,0.4-7.3,3.1c-1.1,1.8-1.6,4-2.3,6c-0.4,1,0.1,1.4,1.2,1.4C722.3,660.8,724.4,660.8,726.4,660.8z"/>
				<path class="st2" d="M637.6,677.6c3.2-1.6,3.5-1.9,3.5-5.6c0-5,0-10,0-15c0-2.6-0.2-4.8-3.3-5.5c2.6-0.7,5.2-1.4,7.8-1.9
					c0.3-0.1,0.9,0.4,1.1,0.8c0.2,0.4,0.1,0.9,0.1,1.4c0,6.8,0,13.5,0,20.3c0,2.6,0,5,3.3,5.7C645.9,677.6,641.8,677.6,637.6,677.6z
					"/>
				<path class="st2" d="M643.3,644.4c-2.2-0.1-3.5-1.5-3.4-3.7c0.1-2,1.7-3.5,3.6-3.4c2.1,0.1,3.7,1.8,3.6,3.8
					C647,643.1,645.4,644.5,643.3,644.4z"/>
			</g>
		</g>
	</g>
</g>
<g>
	<path class="st3" d="M254,503.2c0,4.5,0,9,0,13.5C254.4,511.9,254.4,507.4,254,503.2z"/>
	<linearGradient id="SVGID_1_" gradientUnits="userSpaceOnUse" x1="232.3295" y1="449.9212" x2="255.4471" y2="480.9854">
		<stop  offset="4.469024e-03" style="stop-color:#E3D4C6"/>
		<stop  offset="1" style="stop-color:#F19A5F"/>
	</linearGradient>
	<path class="st4" d="M254,503.2c0-6.9,0-13.8,0-20.7c0-8.2,0.1-16.3,8.6-22.9c-17.1-4.4-32.3-9-47.7-12c-2.7-0.5-5.4-0.9-8.1-1.2
		C206.8,446.5,249.9,460.8,254,503.2z"/>
	<polygon class="st5" points="254,516.7 254,516.7 254,516.7 	"/>
	
		<linearGradient id="SVGID_00000051376504682197285970000015209623540495401865_" gradientUnits="userSpaceOnUse" x1="174.7112" y1="447.5067" x2="268.1029" y2="559.2432">
		<stop  offset="1.385225e-07" style="stop-color:#E57152"/>
		<stop  offset="1" style="stop-color:#B16776"/>
	</linearGradient>
	<path style="fill:url(#SVGID_00000051376504682197285970000015209623540495401865_);" d="M171,464.7c6.2-10.4,20.8-15.5,34.3-12
		c16.4,4.2,25.5,13.8,25.7,27.7c0.3,13.7,0.1,27.4,0.1,41.1c0,3.6-0.2,7,3.3,9.7c6.2,4.7,11.9,10,19.6,16.5c0-10.7,0-21,0-31.1
		c0,0,0,0,0,0c0-4.5,0-9,0-13.5c-4.1-42.4-47.2-56.7-47.3-56.8c-10.9-1.2-21.9-0.3-32.3,4.5c-11.3,5.2-19,14.4-22.6,25
		c4.7,3.2,10.7,7.3,17.4,11.9C166.4,479.9,166.9,471.6,171,464.7z"/>
	
		<linearGradient id="SVGID_00000042712564484900001500000005618569088691102392_" gradientUnits="userSpaceOnUse" x1="190.7926" y1="554.9764" x2="300.6008" y2="654.6707">
		<stop  offset="4.469291e-03" style="stop-color:#6E4D5F"/>
		<stop  offset="1" style="stop-color:#EE9A61"/>
	</linearGradient>
	<path style="fill:url(#SVGID_00000042712564484900001500000005618569088691102392_);" d="M325,604.6c-0.8,1-2,1.8-2.5,3
		c-10.7,24.7-31.4,28.4-54.9,26.2c-10.5-1-13-5.9-8.6-15.6c1.4-3.1,2.5-6.1,3.4-9.1c-2.9-53.2-67.9-76.6-100.5-85.1
		c0.6,0.6,1.2,1.3,1.8,1.9c11.5,11.7,26.1,19.2,39.7,27.9c13.1,8.4,26.2,16.8,34.3,30.8c12.9,22.1,5.1,45.2-18.3,55.3
		c-3.3,1.4-7.8,1.1-10.2,5.3c33.6,0,66.7,0,99.8,0c2.9,0,6.3,0.3,7.4-3.1c3.7-12.1,7.1-24.3,10.6-36.5
		C326.4,605.2,325.7,604.9,325,604.6z"/>
	
		<linearGradient id="SVGID_00000168797659938614322240000016279650965436045471_" gradientUnits="userSpaceOnUse" x1="122.3905" y1="518.4227" x2="268.3199" y2="559.8416">
		<stop  offset="0" style="stop-color:#F2A263"/>
		<stop  offset="1" style="stop-color:#DD6C63"/>
	</linearGradient>
	<path style="fill:url(#SVGID_00000168797659938614322240000016279650965436045471_);" d="M262.5,609c4.7-15.9,2.5-31.4-7.1-46.5
		c-6.6-10.2-15.4-17.9-25.2-25c-17.5-12.6-37.8-21.3-53.1-37.1c-3.7-3.8-6.3-8.1-7.9-12.6c-6.7-4.6-12.7-8.7-17.4-11.9
		c-5.3,15.4-2.3,34,10.2,47.9C194.7,532.3,259.6,555.8,262.5,609z"/>
	
		<linearGradient id="SVGID_00000020361742460144479860000013459776273783615888_" gradientUnits="userSpaceOnUse" x1="149.8442" y1="534.7136" x2="178.7411" y2="642.5954">
		<stop  offset="4.469024e-03" style="stop-color:#E3D4C6"/>
		<stop  offset="1" style="stop-color:#F19A5F"/>
	</linearGradient>
	<path style="fill:url(#SVGID_00000020361742460144479860000013459776273783615888_);" d="M136,544.8c-4.7,21.2-2,39.2,3.5,57
		c5.5,17.8,15.6,31.7,33,39.3c11,4.8,22,5.3,33.3-3.9c-16.6-5.6-28.4-15.5-37.1-29.3c0.2,0,0.4,0.1,0.6,0.1
		c-21.1-23.9-30.7-54-33.1-62.9C136.1,545,136,544.9,136,544.8z"/>
	<path class="st5" d="M211.6,622.1c0-2.5-0.1-4.9-0.4-7.2C211.4,617.4,211.5,619.9,211.6,622.1C211.6,622.1,211.6,622.1,211.6,622.1
		z"/>
	
		<linearGradient id="SVGID_00000119820957735483133510000006830121091453567918_" gradientUnits="userSpaceOnUse" x1="136.1506" y1="587.6941" x2="211.6264" y2="587.6941">
		<stop  offset="4.469158e-03" style="stop-color:#006838"/>
		<stop  offset="1" style="stop-color:#DDD5CA"/>
	</linearGradient>
	<path style="fill:url(#SVGID_00000119820957735483133510000006830121091453567918_);" d="M200.9,628.4c7,3.6,10.7,2.4,10.8-6.3
		c-0.1-2.2-0.3-4.7-0.4-7.2c-2.1-15.3-11.4-26.2-24.7-34.2c-17.2-10.4-37.2-16.5-50.4-35.7c2.5,8.9,12,39,33.1,62.9
		c4.9,1,8.3,4.2,11.8,7.3C187,620.7,193.8,624.7,200.9,628.4z"/>
</g>
</svg>
